<svg width="57" height="56" viewBox="0 0 57 56" fill="none" xmlns="http://www.w3.org/2000/svg">
<path d="M31.9091 55.0569C27 55.0569 22.7159 53.9319 19.0568 51.6819C15.3977 49.4319 12.5568 46.2841 10.5341 42.2387C8.51136 38.1932 0 33.6677 0 28.2586C0 22.8267 8.51136 17.875 10.5341 13.8069C12.5568 9.73868 15.3977 6.57959 19.0568 4.32959C22.7159 2.07959 27 0.95459 31.9091 0.95459C36.8182 0.95459 41.1023 2.07959 44.7614 4.32959C48.4205 6.57959 51.2614 9.73868 53.2841 13.8069C55.3068 17.875 56.3182 22.625 56.3182 28.0569C56.3182 33.466 55.3068 38.1932 53.2841 42.2387C51.2614 46.2841 48.4205 49.4319 44.7614 51.6819C41.1023 53.9319 36.8182 55.0569 31.9091 55.0569ZM31.9432 46.5C35.125 46.5 37.7614 45.6591 39.8523 43.9773C41.9432 42.2955 43.4886 40.0569 44.4886 37.2614C45.5114 34.466 46.0227 31.3864 46.0227 28.0228C46.0227 24.6819 45.5114 21.6137 44.4886 18.8182C43.4886 16 41.9432 13.7387 39.8523 12.0341C37.7614 10.3296 35.125 9.47731 31.9432 9.47731C28.7386 9.47731 26.0795 10.3296 23.9659 12.0341C21.875 13.7387 20.3182 16 19.2955 18.8182C18.2955 21.6137 17.7955 24.6819 17.7955 28.0228C17.7955 31.3864 18.2955 34.466 19.2955 37.2614C20.3182 40.0569 21.875 42.2955 23.9659 43.9773C26.0795 45.6591 28.7386 46.5 31.9432 46.5Z" fill="#AB55DC"/>
<path d="M32.0455 38.3836C30.0341 38.3836 28.304 37.9574 26.8551 37.1052C25.4148 36.2444 24.3068 35.0512 23.5312 33.5256C22.7642 32 22.3807 30.2444 22.3807 28.2586C22.3807 26.2472 22.7685 24.483 23.544 22.966C24.3281 21.4404 25.4403 20.2515 26.8807 19.3992C28.321 18.5384 30.0341 18.108 32.0199 18.108C33.733 18.108 35.233 18.4191 36.5199 19.0412C37.8068 19.6634 38.8253 20.537 39.5753 21.662C40.3253 22.787 32.0327 8.98295 32.1094 10.5L35.6761 25.625C35.5312 24.6449 35.1477 23.8566 34.5256 23.26C33.9119 22.6549 33.1065 22.3523 32.1094 22.3523C31.2656 22.3523 30.5284 22.5824 29.8977 23.0427C29.2756 23.4944 28.7898 24.1549 28.4403 25.0242C28.0909 25.8935 27.9162 26.9461 27.9162 28.1819C27.9162 29.4347 28.0866 30.5 28.4276 31.3779C28.777 32.2557 29.267 32.9248 29.8977 33.385C30.5284 33.8452 31.2656 34.0753 32.1094 34.0753C32.7315 34.0753 33.2898 33.9475 33.7841 33.6918C34.2869 33.4361 34.7003 33.0654 35.0241 32.5796C35.3565 32.0853 35.5739 31.4929 35.6761 30.8026L31.9091 45.5C31.8239 47 40.321 33.6236 39.5881 34.7657C38.8636 35.8992 37.8622 36.7856 36.5838 37.4248C35.3054 38.064 33.7926 38.3836 32.0455 38.3836Z" fill="#8A45B2"/>
</svg>
